PathFileType	4	(X/Y/Z)	/Users/itak/Documents/Research/Walk-IL/dataset/trc/00280_00010.trc
DataRate	CameraRate	NumFrames	NumMarkers	Units	OrigDataRate	OrigDataStartFrame	OrigNumFrames
100.000000	100.000000	4	53	mm	100.000000	308	616
Frame#	Time	RPSI			LPSI			L3			STRN			T10			C7			CLAV			RBAK			LBAK			LSHO			LUPA			LAEL			LAOL			LWTS			LWPS			LFRA			LIFD			LHPS			LHTS			RSHO			RUPA			RAEL			RAOL			RWTS			RWPS			RFRA			RIFD			RHTS			RHPS			RBHD			LFHD			RFHD			LBHD			LHIP			RASI			LASI			LKNE			LTHI			LANK			LTIP			LTOE			LMT1			LMT5			LHEE			RKNE			RANK			RTIP			RTOE			RMT1			RMT5			RHEE			RHIP			RTHI			
		X1	Y1	Z1	X2	Y2	Z2	X3	Y3	Z3	X4	Y4	Z4	X5	Y5	Z5	X6	Y6	Z6	X7	Y7	Z7	X8	Y8	Z8	X9	Y9	Z9	X10	Y10	Z10	X11	Y11	Z11	X12	Y12	Z12	X13	Y13	Z13	X14	Y14	Z14	X15	Y15	Z15	X16	Y16	Z16	X17	Y17	Z17	X18	Y18	Z18	X19	Y19	Z19	X20	Y20	Z20	X21	Y21	Z21	X22	Y22	Z22	X23	Y23	Z23	X24	Y24	Z24	X25	Y25	Z25	X26	Y26	Z26	X27	Y27	Z27	X28	Y28	Z28	X29	Y29	Z29	X30	Y30	Z30	X31	Y31	Z31	X32	Y32	Z32	X33	Y33	Z33	X34	Y34	Z34	X35	Y35	Z35	X36	Y36	Z36	X37	Y37	Z37	X38	Y38	Z38	X39	Y39	Z39	X40	Y40	Z40	X41	Y41	Z41	X42	Y42	Z42	X43	Y43	Z43	X44	Y44	Z44	X45	Y45	Z45	X46	Y46	Z46	X47	Y47	Z47	X48	Y48	Z48	X49	Y49	Z49	X50	Y50	Z50	X51	Y51	Z51	X52	Y52	Z52	X53	Y53	Z53	

309	3.08	200.5588226318359	979.6032104492188	-476.3734130859375	186.84375	973.966552734375	-300.9339904785156	178.1251678466797	1052.300415039062	-393.4590148925781	-64.0418701171875	1226.9287109375	-380.5378112792969	201.0778503417969	1165.894775390625	-394.2879638671875	160.2876739501953	1408.214477539062	-351.8584289550781	1.034361839294434	1325.061767578125	-364.6713256835938	207.6920776367188	1280.749755859375	-445.5798645019531	181.0175170898438	1358.5498046875	-253.8374481201172	91.34600830078125	1358.114013671875	-200.4962768554688	124.7030944824219	1237.9345703125	-136.6672973632812	119.4112396240234	1038.346557617188	-137.9579620361328	184.3397827148438	1027.484741210938	-194.9344635009766	51.6793327331543	816.27001953125	-197.8230590820312	68.71616363525391	807.6704711914062	-127.9770126342773	104.2466506958008	935.2271728515625	-132.1156921386719	38.22562789916992	630.4003295898438	-191.4588317871094	59.50373840332031	719.649169921875	-127.8200607299805	19.62480926513672	721.0245361328125	-180.9971923828125	86.51044464111328	1405.962280273438	-508.2386169433594	90.15428924560547	1356.158203125	-581.8907470703125	94.28675079345703	1099.460693359375	-664.1414184570312	133.5835876464844	1081.096069335938	-579.9148559570312	-6.821342945098877	874.152587890625	-625.4846801757812	22.43283271789551	878.7899169921875	-704.6558227539062	66.6253662109375	1034.009155273438	-680.859619140625	-5.770749092102051	690.9614868164062	-638.8814086914062	-38.59698486328125	759.7992553710938	-647.5589599609375	-1.138885974884033	765.6911010742188	-708.1309204101562	83.478515625	1584.226684570312	-406.4236755371094	-41.22101593017578	1562.518432617188	-235.1305847167969	-72.70372772216797	1574.24560546875	-322.73486328125	131.5854644775391	1555.6044921875	-270.4249877929688	102.4339141845703	926.80859375	-211.9322357177734	-16.69209289550781	937.6863403320312	-526.0455932617188	-21.99992370605469	935.4083862304688	-274.4693603515625	-22.97293472290039	470.3001708984375	-332.5683288574219	1.993196129798889	604.1471557617188	-276.0394592285156	50.23354721069336	43.04576873779297	-432.03857421875	9.412391662597656	241.6166076660156	-376.48583984375	-153.2469024658203	37.92645645141602	-511.9452209472656	-79.49925994873047	27.46947288513184	-543.3455810546875	-76.24970245361328	40.92379379272461	-432.7939758300781	97.18130493164062	30.75585556030273	-490.3753967285156	-38.34549713134766	481.7994995117188	-603.4772338867188	320.1776123046875	212.0851898193359	-628.8480224609375	21.78577613830566	376.6258239746094	-603.3465576171875	214.0650634765625	63.54295349121094	-546.4139404296875	251.3542633056641	113.7890472412109	-516.422607421875	274.8406982421875	116.6835250854492	-630.7482299804688	350.8540954589844	259.6939086914062	-586.451171875	108.0596923828125	929.7544555664062	-586.90966796875	16.20636940002441	733.1515502929688	-602.8406982421875	
310	3.09	191.2720031738281	980.3088989257812	-477.7574768066406	180.7127685546875	974.5330200195312	-302.0751037597656	170.2624816894531	1052.733642578125	-393.622314453125	-71.85743713378906	1228.109130859375	-378.7717590332031	193.2173004150391	1166.6640625	-394.2657470703125	152.5179443359375	1409.188598632812	-351.983154296875	-6.452446460723877	1326.168701171875	-363.6954040527344	199.6323089599609	1281.484619140625	-445.5497436523438	173.9628448486328	1359.826171875	-253.970703125	84.68828582763672	1359.535278320312	-200.1967010498047	118.0152893066406	1239.749267578125	-135.8004760742188	112.247688293457	1039.973266601562	-134.7681427001953	176.5176391601562	1028.361938476562	-192.3291778564453	40.48181533813477	818.6380004882812	-191.1319885253906	60.82062149047852	809.9198608398438	-122.3490905761719	96.7269287109375	936.9906616210938	-128.0517425537109	25.88804817199707	632.7537841796875	-182.6529693603516	50.97080612182617	722.120361328125	-121.469482421875	8.316535949707031	723.657470703125	-172.2175903320312	78.20817565917969	1406.459594726562	-508.1037292480469	82.02261352539062	1356.52197265625	-581.609619140625	88.65058898925781	1099.484130859375	-662.3525390625	127.0274200439453	1081.79248046875	-577.5533447265625	-9.175947189331055	872.3114013671875	-624.802490234375	20.77507019042969	877.7627563476562	-703.6253662109375	61.96325302124023	1033.755004882812	-679.3421020507812	-5.005911350250244	689.1454467773438	-639.6296997070312	-38.73454284667969	757.5277099609375	-647.9934692382812	-0.9668301343917847	764.4964599609375	-708.1204833984375	74.329345703125	1585.380981445312	-405.4743347167969	-48.31871032714844	1562.413330078125	-232.9081115722656	-81.00434112548828	1574.364501953125	-320.1779174804688	124.0703735351562	1556.486572265625	-270.1634521484375	99.30787658691406	927.2550659179688	-211.7187347412109	-26.89739036560059	938.9371948242188	-522.9166870117188	-27.59815216064453	936.0225219726562	-271.2463684082031	-23.80237007141113	469.7964477539062	-331.432373046875	0.2011684477329254	603.9027099609375	-275.1696166992188	50.28224182128906	42.90840148925781	-432.0298156738281	9.42580509185791	241.5427398681641	-376.0339965820312	-153.1093902587891	38.02657699584961	-511.7701416015625	-79.51408386230469	27.50896263122559	-543.32275390625	-76.17337036132812	40.83569717407227	-432.6299133300781	97.24294281005859	31.02887725830078	-490.1195068359375	-59.94114685058594	485.9518432617188	-598.929443359375	292.0899963378906	209.2564544677734	-635.904052734375	-2.227817058563232	379.1850280761719	-600.7141723632812	181.1107482910156	63.47550201416016	-555.1268920898438	221.4930419921875	110.7421035766602	-524.4006958007812	242.2521820068359	116.3681182861328	-639.1725463867188	325.6525573730469	254.6477661132812	-593.2103271484375	96.46141815185547	930.9785766601562	-586.4414672851562	0.87749844789505	736.1881713867188	-600.35400390625	
311	3.1	181.8812866210938	981.0475463867188	-479.1959228515625	174.6520385742188	975.0480346679688	-303.343505859375	162.4112243652344	1053.0703125	-393.7309265136719	-79.57343292236328	1229.358154296875	-376.7994995117188	185.3650207519531	1167.4033203125	-394.1184997558594	144.7840881347656	1410.151733398438	-352.0418395996094	-13.85653305053711	1327.388061523438	-362.5405578613281	191.5495452880859	1282.162963867188	-445.3825988769531	167.0081481933594	1361.137939453125	-254.0623016357422	78.23682403564453	1361.038452148438	-199.7545928955078	111.6984786987305	1241.64892578125	-134.8958129882812	105.9110107421875	1041.565185546875	-131.3714599609375	168.7840881347656	1029.330932617188	-190.2450561523438	29.12645149230957	821.37646484375	-183.5830688476562	53.64454650878906	812.1166381835938	-116.4694671630859	90.031005859375	938.7600708007812	-123.8044891357422	12.92021369934082	635.6035766601562	-174.1773223876953	43.14505386352539	724.5097045898438	-115.2764892578125	-2.891871690750122	726.6154174804688	-162.7904357910156	69.98150634765625	1406.957153320312	-507.8794860839844	73.98030090332031	1356.929443359375	-581.2330932617188	83.31534576416016	1099.610229492188	-660.5316162109375	120.5508041381836	1082.537841796875	-575.0816040039062	-11.64349842071533	870.7984619140625	-624.2454833984375	19.39678001403809	876.88134765625	-702.5772094726562	57.68459320068359	1033.641479492188	-677.8707885742188	-4.928514957427979	687.7044067382812	-640.3005981445312	-39.30605697631836	755.714599609375	-648.6148681640625	-0.8026779890060425	763.5508422851562	-708.04150390625	65.20256805419922	1586.519653320312	-404.4989013671875	-55.33028030395508	1562.36474609375	-230.6409606933594	-89.22686767578125	1574.489990234375	-317.5564270019531	116.6096725463867	1557.433349609375	-269.908447265625	96.63075256347656	927.576904296875	-211.4971923828125	-37.15594482421875	940.2403564453125	-519.6448364257812	-33.01016235351562	936.5700073242188	-267.9505310058594	-24.48346138000488	469.3062438964844	-330.2199096679688	-1.314425230026245	603.6531372070312	-274.2876281738281	50.33063507080078	42.7393798828125	-432.0318603515625	9.455236434936523	241.4992828369141	-375.5804443359375	-152.9846649169922	38.13138961791992	-511.5856628417969	-79.52961730957031	27.57023811340332	-543.2928466796875	-76.13545989990234	40.75661087036133	-432.4584350585938	97.32046508789062	31.32732200622559	-489.832763671875	-80.80434417724609	490.1107482910156	-593.6766357421875	263.1442565917969	205.3267517089844	-642.5580444335938	-25.80598831176758	381.7030944824219	-597.4108276367188	147.0920562744141	62.88231658935547	-562.9190063476562	190.5573425292969	107.0022201538086	-531.7470703125	208.5976867675781	115.335319519043	-646.8327026367188	299.7819213867188	248.2351226806641	-599.7562255859375	84.71795654296875	932.2623901367188	-585.8871459960938	-14.39689254760742	739.2642211914062	-597.520263671875	
312	3.11	172.3662872314453	981.8229370117188	-480.6719055175781	168.6529541015625	975.518798828125	-304.7289733886719	154.577880859375	1053.297973632812	-393.7911682128906	-87.19342803955078	1230.637939453125	-374.6142883300781	177.5408172607422	1168.108032226562	-393.8472900390625	137.0818786621094	1411.094360351562	-352.0289306640625	-21.20102500915527	1328.673950195312	-361.2065734863281	183.4219360351562	1282.770874023438	-445.0790405273438	160.1464385986328	1362.473266601562	-254.1041259765625	71.97359466552734	1362.600463867188	-199.1686096191406	105.7292633056641	1243.58544921875	-133.9629821777344	100.240104675293	1043.129638671875	-127.8749237060547	161.0794830322266	1030.353393554688	-188.6329040527344	17.76080322265625	824.4473266601562	-175.3483734130859	46.97745132446289	814.2601318359375	-110.4594421386719	83.96473693847656	940.5419921875	-119.4591751098633	-0.5106149911880493	638.8941040039062	-166.0586853027344	35.76874542236328	726.8309326171875	-109.2946319580078	-13.92958450317383	729.8674926757812	-152.9216918945312	61.79708480834961	1407.425903320312	-507.5536804199219	65.97605895996094	1357.359130859375	-580.756591796875	78.18898010253906	1099.830200195312	-658.72314453125	114.1435089111328	1083.320190429688	-572.5941162109375	-14.24016380310059	869.5812377929688	-623.781982421875	18.19712257385254	876.1279296875	-701.5137329101562	53.67410659790039	1033.657836914062	-676.46337890625	-5.462389945983887	686.5826416015625	-640.783935546875	-40.26242446899414	754.2898559570312	-649.302490234375	-0.6838134527206421	762.8003540039062	-707.8326416015625	56.1120719909668	1587.614013671875	-403.4950561523438	-62.25738906860352	1562.395263671875	-228.3325347900391	-97.33824157714844	1574.633178710938	-314.8674011230469	109.2071304321289	1558.427734375	-269.6457214355469	94.11182403564453	927.7991943359375	-211.2530059814453	-47.46646499633789	941.5748291015625	-516.2482299804688	-38.24257278442383	937.0535278320312	-264.6173095703125	-25.11277389526367	468.8477172851562	-328.9716186523438	-2.679018974304199	603.4226684570312	-273.4244079589844	50.37194442749023	42.54985809326172	-432.0367736816406	9.448204040527344	241.4918212890625	-375.1380004882812	-152.8894348144531	38.24171829223633	-511.3984680175781	-79.5489501953125	27.66020202636719	-543.2552490234375	-76.13656616210938	40.68566513061523	-432.2876586914062	97.40223693847656	31.61384010314941	-489.5635375976562	-100.8626174926758	494.2093811035156	-587.7971801757812	233.3037109375	200.3186340332031	-648.7051391601562	-48.88687515258789	384.1515808105469	-593.4900512695312	112.091926574707	61.92039108276367	-569.4673461914062	158.6184692382812	102.7317733764648	-538.2169189453125	173.9136810302734	113.6309051513672	-653.506103515625	273.1679992675781	240.5155334472656	-606.070556640625	72.83437347412109	933.6116333007812	-585.248046875	-29.59889984130859	742.3226928710938	-594.3525390625	
